<?xml version="1.0" encoding="utf-8"?>
<!-- Generator: Adobe Illustrator 28.3.0, SVG Export Plug-In . SVG Version: 6.00 Build 0)  -->
<svg version="1.1" id="Capa_1" xmlns="http://www.w3.org/2000/svg" xmlns:xlink="http://www.w3.org/1999/xlink" x="0px" y="0px"
	 viewBox="0 0 1780 465" style="enable-background:new 0 0 1780 465;" xml:space="preserve">
<style type="text/css">
	.st0{fill:#4B535B;}
	.st1{opacity:0.3;fill:#32393F;}
</style>
<g transform="translate(0 -6018)">
	<rect y="6018" class="st0" width="1780" height="465"/>
</g>
<path id="Trazado_1" class="st1" d="M115.6,544c-22.3,0-43.7-4.6-64.1-13.9c-20.4-9.3-38.1-23.2-52-39.9
	c-13.9-17.7-21.4-39-20.4-61.3c0-19.5,4.6-39,13.9-55.7s21.4-31.6,36.2-44.6c14.9-13.9,31.6-26,48.3-37.2
	c-13-19.5-23.2-35.3-31.6-49.2c-7.4-12.1-13-24.2-16.7-38.1c-3.7-11.1-4.6-23.2-4.6-35.3c0-19.5,4.6-39.9,15.8-56.7
	C50.5,97.1,64.5,85,81.2,77.6c16.7-7.4,35.3-12.1,53.9-12.1c21.4,0,43.7,3.7,63.2,12.1c14.9,7.4,26.9,17.7,35.3,31.6
	c7.4,12.1,11.1,26,11.1,39.9c0,17.7-5.6,35.3-16.7,50.2c-12.1,16.7-26,30.7-41.8,43.7s-32.5,24.2-50.2,34.4
	c7.4,11.1,16.7,22.3,26,35.3c9.3,13,19.5,26.9,31.6,41.8c22.3,30.7,41.8,55.7,59.5,77.1c1.9-2.8,3.7-5.6,5.6-8.4s3.7-5.6,4.6-7.4
	c17.7-27.9,26-49.2,26-63.2c0-8.4-3.7-15.8-11.1-20.4c-10.2-4.6-20.4-8.4-31.6-8.4l-19.5-1.9v-16.7l85.5,1.9l70.6-1.9V321l-23.2,5.6
	c-17.7,4.6-31.6,15.8-40.9,31.6c-11.1,17.7-23.2,38.1-36.2,62.2c-1.9,4.6-4.6,9.3-7.4,13.9c-2.8,4.6-5.6,9.3-9.3,14.9
	c15.8,18.6,33.4,36.2,53,52c9.3,8.4,20.4,13,32.5,14.9c13.9,0,26.9-5.6,36.2-15.8l10.2,12.1c-15.8,19.5-39.9,31.6-66,32.5
	c-11.1,0-21.4-0.9-31.6-2.8c-11.1-2.8-22.3-7.4-31.6-13.9c-13.9-10.2-26.9-21.4-39-34.4c-14.9,14.9-31.6,26.9-50.2,36.2
	c-20.4,10.2-43.7,15.8-66.9,14.9 M38.5,428.8c0,14.9,2.8,28.8,7.4,42.7c4.6,14.9,13,27.9,25.1,37.2c14.9,11.1,32.5,15.8,51.1,14.9
	c18.6,0,37.2-4.6,53-13.9c15.8-9.3,29.7-20.4,42.7-32.5c-12.1-13.9-26-31.6-39.9-51.1c-17.7-24.2-33.4-45.5-47.4-64.1
	c-13.9-18.6-26-35.3-37.2-50.2c-15.8,14.9-28.8,32.5-39,52c-10.2,20.4-15.8,42.7-14.9,66 M79.3,149.1c0,18.6,3.7,37.2,11.1,54.8
	c10.2,20.4,22.3,40.9,35.3,59.5c14.9-12.1,27.9-26,40.9-39.9c9.3-10.2,15.8-22.3,20.4-35.3c3.7-13,5.6-26,5.6-39
	c0-16.7-4.6-32.5-14.9-44.6s-24.2-17.7-39.9-17.7c-16.7,0-32.5,5.6-43.7,17.7s-16.7,28.8-15.8,45.5"/>
</svg>
