<?xml version="1.0" encoding="UTF-8"?><svg id="a" xmlns="http://www.w3.org/2000/svg" width="46.64cm" height="14.01cm" viewBox="0 0 1322.08 397.14"><path d="M96.88,392.71c-15.45,0-30.59-3.4-45.42-10.2-14.83-6.79-27.11-16.38-36.85-28.74-9.73-12.36-14.6-27.03-14.6-44.03,0-14.83,3.25-28.11,9.73-39.86,6.49-11.74,15.07-22.4,25.73-31.98,10.66-9.58,22.17-18.38,34.53-26.42-9.27-13.59-16.68-25.26-22.25-35-5.56-9.73-9.5-18.69-11.82-26.88-2.32-8.19-3.48-16.61-3.48-25.26,0-16.06,3.71-29.43,11.13-40.09,7.42-10.66,17.07-18.77,28.97-24.33,11.89-5.56,24.8-8.34,38.7-8.34,18.54,0,33.52,2.94,44.96,8.81,11.43,5.87,19.85,13.44,25.26,22.71,5.4,9.27,8.11,18.7,8.11,28.28,0,12.67-4.02,24.57-12.05,35.69-8.04,11.12-18.08,21.4-30.13,30.82-12.05,9.43-23.95,17.69-35.69,24.8,5.56,7.73,11.74,16.07,18.54,25.03,6.79,8.97,14.21,19,22.25,30.13,15.76,21.63,29.97,39.86,42.64,54.69,1.54-2.16,2.93-4.24,4.17-6.26,1.23-2,2.32-3.78,3.24-5.33,12.36-20.08,18.54-35.07,18.54-44.96,0-6.49-2.55-11.27-7.65-14.37-5.1-3.08-12.59-5.1-22.48-6.03l-13.9-1.39v-11.59l60.72,1.39,50.52-1.39v11.12l-16.69,3.71c-11.44,2.48-21.09,9.89-28.97,22.25-7.88,12.36-16.45,27.2-25.72,44.5-1.55,3.09-3.33,6.34-5.33,9.73-2.01,3.4-4.25,6.95-6.72,10.66,15.76,17.61,28.43,29.9,38.01,36.85,9.58,6.95,17.3,10.43,23.17,10.43,8.96,0,17.61-3.71,25.96-11.12l7.42,8.81c-5.87,7.42-13.14,13.14-21.78,17.15-8.66,4.01-17,6.03-25.03,6.03s-15.61-.78-22.71-2.32c-7.11-1.55-14.6-4.87-22.48-9.97-7.88-5.1-17.08-13.21-27.58-24.33-9.89,10.2-21.71,18.85-35.46,25.96-13.75,7.1-29.59,10.66-47.51,10.66ZM41.72,310.21c0,9.89,1.7,20.09,5.1,30.59,3.4,10.51,9.42,19.31,18.08,26.42,8.65,7.11,20.7,10.66,36.16,10.66,13.9,0,26.57-3.32,38.01-9.97,11.43-6.64,21.62-14.44,30.59-23.41-8.66-10.2-18.24-22.4-28.74-36.62-12.67-16.99-23.95-32.22-33.83-45.66-9.89-13.44-18.7-25.41-26.42-35.92-11.44,11.12-20.78,23.41-28.04,36.85-7.27,13.44-10.89,29.13-10.89,47.05ZM70.92,111.36c0,14.22,2.62,27.19,7.88,38.94,5.25,11.75,13.74,25.8,25.49,42.18,12.36-10.81,22.09-20.39,29.2-28.74,7.11-8.34,12.05-16.69,14.83-25.03,2.78-8.34,4.17-17.61,4.17-27.81,0-12.98-3.56-23.64-10.66-31.98-7.11-8.34-16.53-12.52-28.27-12.52-13.29,0-23.72,4.25-31.29,12.75-7.58,8.5-11.36,19.24-11.36,32.22Z" style="fill:#8dd4bd;"/><path d="M521.8,22.41c15.06,14.94,22.6,37.35,22.6,67.22v117.21h-47.88v-111.08c0-17.87-3.96-31.34-11.87-40.41-7.91-9.06-19.28-13.6-34.09-13.6-16.09,0-28.99,5.3-38.69,15.89-9.71,10.6-14.55,25.73-14.55,45.39v103.8h-47.88v-111.08c0-17.87-3.97-31.34-11.87-40.41-7.92-9.06-19.28-13.6-34.09-13.6-16.35,0-29.3,5.24-38.88,15.7-9.58,10.47-14.36,25.66-14.36,45.58v103.8h-47.88V2.3h45.58v26.05c7.66-9.19,17.24-16.22,28.73-21.07,11.49-4.84,24.26-7.28,38.31-7.28,15.32,0,28.92,2.87,40.79,8.62,11.87,5.74,21.26,14.24,28.16,25.47,8.43-10.72,19.27-19.09,32.55-25.09,13.28-6,27.97-9,44.05-9,25.79,0,46.22,7.47,61.29,22.41Z" style="fill:#4b535b;"/><path d="M717.72,21.64c15.95,14.43,23.94,36.2,23.94,65.31v119.89h-45.2v-24.9c-5.87,8.94-14.24,15.77-25.09,20.49-10.86,4.72-23.94,7.09-39.26,7.09s-28.73-2.62-40.21-7.85c-11.49-5.23-20.37-12.51-26.62-21.83-6.26-9.32-9.38-19.85-9.38-31.6,0-18.39,6.83-33.13,20.49-44.24,13.66-11.11,35.17-16.66,64.54-16.66h52.86v-3.07c0-14.3-4.28-25.28-12.83-32.94-8.56-7.66-21.26-11.49-38.11-11.49-11.49,0-22.79,1.79-33.9,5.36-11.1,3.58-20.49,8.56-28.15,14.94l-18.77-34.86c10.72-8.17,23.61-14.42,38.68-18.77,15.07-4.34,31.03-6.51,47.88-6.51,30.13,0,53.18,7.22,69.14,21.64ZM674.05,166.43c9.32-5.49,15.9-13.34,19.73-23.56v-23.75h-49.41c-27.58,0-41.37,9.07-41.37,27.19,0,8.68,3.44,15.58,10.34,20.69,6.9,5.11,16.47,7.66,28.73,7.66s22.66-2.74,31.98-8.24Z" style="fill:#4b535b;"/><path d="M955.39,2.3l-87.71,204.54h-49.41L730.55,2.3h49.8l63.58,151.68L909.43,2.3h45.96Z" style="fill:#4b535b;"/><path d="M424.56,313.49h33.19v63.69c-8.52,6.43-18.39,11.36-29.6,14.8-11.21,3.44-22.5,5.16-33.86,5.16-16.3,0-30.95-3.48-43.96-10.43-13.01-6.95-23.21-16.6-30.61-28.93-7.4-12.34-11.1-26.27-11.1-41.82s3.7-29.49,11.1-41.82c7.4-12.34,17.68-21.98,30.84-28.93,13.15-6.95,27.96-10.43,44.4-10.43,13.75,0,26.24,2.32,37.45,6.95,11.21,4.64,20.63,11.37,28.26,20.18l-23.32,21.53c-11.21-11.81-24.75-17.72-40.59-17.72-10.02,0-18.91,2.1-26.69,6.28-7.78,4.19-13.83,10.09-18.17,17.72-4.34,7.63-6.5,16.37-6.5,26.24s2.17,18.39,6.5,26.01c4.33,7.62,10.35,13.57,18.05,17.83,7.7,4.26,16.48,6.39,26.35,6.39,10.46,0,19.88-2.24,28.26-6.73v-45.97Z" style="fill:#4b535b;"/><path d="M571,394.45l-30.28-43.73h-33.42v43.73h-36.33v-156.98h67.95c13.9,0,25.98,2.32,36.22,6.95,10.24,4.64,18.13,11.21,23.66,19.74,5.53,8.52,8.3,18.61,8.3,30.28s-2.8,21.72-8.41,30.16c-5.61,8.45-13.57,14.91-23.88,19.4l35.21,50.46h-39.02ZM561.8,274.13c-5.69-4.71-13.98-7.07-24.89-7.07h-29.6v54.72h29.6c10.91,0,19.21-2.39,24.89-7.18,5.68-4.78,8.52-11.51,8.52-20.18s-2.84-15.59-8.52-20.29Z" style="fill:#4b535b;"/><path d="M654.64,386.6c-13.08-7.03-23.32-16.71-30.72-29.04-7.4-12.34-11.1-26.2-11.1-41.6s3.7-29.27,11.1-41.6c7.4-12.33,17.64-22.01,30.72-29.04,13.08-7.03,27.77-10.54,44.07-10.54s30.95,3.51,43.95,10.54c13.01,7.03,23.25,16.71,30.72,29.04,7.47,12.33,11.21,26.2,11.21,41.6s-3.74,29.26-11.21,41.6c-7.48,12.33-17.72,22.01-30.72,29.04-13.01,7.03-27.66,10.54-43.95,10.54s-30.99-3.51-44.07-10.54ZM723.82,359.8c7.47-4.26,13.35-10.2,17.61-17.83s6.39-16.3,6.39-26.01-2.13-18.39-6.39-26.02c-4.26-7.63-10.13-13.57-17.61-17.83-7.48-4.26-15.85-6.39-25.12-6.39s-17.64,2.13-25.12,6.39c-7.48,4.26-13.34,10.2-17.6,17.83-4.26,7.62-6.39,16.3-6.39,26.02s2.13,18.39,6.39,26.01c4.26,7.62,10.13,13.57,17.6,17.83,7.47,4.26,15.84,6.39,25.12,6.39s17.64-2.13,25.12-6.39Z" style="fill:#4b535b;"/><path d="M1023.65,237.47l-51.36,156.98h-39.02l-34.54-106.3-35.66,106.3h-38.8l-51.58-156.98h37.68l35.43,110.34,37-110.34h33.64l35.88,111.23,36.56-111.23h34.76Z" style="fill:#4b535b;"/><path d="M1083.53,267.07h-50.23v-29.6h136.8v29.6h-50.24v127.38h-36.33v-127.38Z" style="fill:#4b535b;"/><path d="M1322.08,237.47v156.98h-36.33v-64.36h-71.32v64.36h-36.33v-156.98h36.33v61.9h71.32v-61.9h36.33Z" style="fill:#4b535b;"/></svg>