<svg xmlns="http://www.w3.org/2000/svg" xmlns:xlink="http://www.w3.org/1999/xlink" width="260" height="63.878" viewBox="0 0 260 63.878"><defs><clipPath id="a"><rect width="260" height="63.878" fill="none"/></clipPath></defs><g transform="translate(417 404)"><g transform="translate(-417 -404)" clip-path="url(#a)"><path d="M14.628,68.872a16.325,16.325,0,0,1-6.859-1.539,14.823,14.823,0,0,1-5.564-4.339A10.421,10.421,0,0,1,0,56.344a12.237,12.237,0,0,1,1.469-6.018A18.547,18.547,0,0,1,5.354,45.5a42.29,42.29,0,0,1,5.214-3.99q-2.1-3.079-3.36-5.284a18.465,18.465,0,0,1-1.784-4.059A13.941,13.941,0,0,1,4.9,28.349,10.355,10.355,0,0,1,6.58,22.3a10.8,10.8,0,0,1,4.374-3.674,13.612,13.612,0,0,1,5.844-1.26,14.9,14.9,0,0,1,6.788,1.33A9.038,9.038,0,0,1,27.4,22.12a8.4,8.4,0,0,1,1.224,4.27,9.041,9.041,0,0,1-1.819,5.389,23.12,23.12,0,0,1-4.55,4.654,54.77,54.77,0,0,1-5.389,3.745q1.26,1.75,2.8,3.78t3.36,4.55q3.569,4.9,6.439,8.259.349-.488.63-.945c.185-.3.35-.571.489-.8q2.8-4.548,2.8-6.789a2.359,2.359,0,0,0-1.154-2.169,8.165,8.165,0,0,0-3.395-.91l-2.1-.209v-1.75l9.169.21,7.629-.21v1.68l-2.52.561a6.971,6.971,0,0,0-4.374,3.359q-1.784,2.8-3.884,6.719-.352.7-.806,1.469t-1.014,1.611a40.981,40.981,0,0,0,5.739,5.564,6.655,6.655,0,0,0,3.5,1.574,5.863,5.863,0,0,0,3.919-1.679l1.12,1.33a9.444,9.444,0,0,1-7.068,3.5,16.127,16.127,0,0,1-3.429-.35,10.418,10.418,0,0,1-3.395-1.505,24.166,24.166,0,0,1-4.164-3.674,20.505,20.505,0,0,1-5.354,3.92,15.423,15.423,0,0,1-7.174,1.609M6.3,56.415a14.958,14.958,0,0,0,.77,4.619A8.414,8.414,0,0,0,9.8,65.023a8.362,8.362,0,0,0,5.46,1.61A11.207,11.207,0,0,0,21,65.128a22.441,22.441,0,0,0,4.619-3.534q-1.96-2.31-4.339-5.529-2.871-3.849-5.109-6.894t-3.99-5.424a22.952,22.952,0,0,0-4.233,5.565,14.707,14.707,0,0,0-1.645,7.1m4.41-30.025a14.229,14.229,0,0,0,1.19,5.879,38.261,38.261,0,0,0,3.849,6.369A43.743,43.743,0,0,0,20.157,34.3a11.517,11.517,0,0,0,2.24-3.78,13.238,13.238,0,0,0,.63-4.2,7.188,7.188,0,0,0-1.61-4.829,5.33,5.33,0,0,0-4.269-1.89,6,6,0,0,0-4.725,1.925,7.038,7.038,0,0,0-1.715,4.864" transform="translate(0 -4.994)" fill="#81cbaf"/><path d="M92.316,51.227a10.365,10.365,0,0,1,4.731,1.033,7.724,7.724,0,0,1,3.265,3.182,11.05,11.05,0,0,1,1.219,5.5V73.581H96.365V61.6A6.183,6.183,0,0,0,95,57.218a5.083,5.083,0,0,0-3.885-1.447,6.781,6.781,0,0,0-3.222.744,5.1,5.1,0,0,0-2.17,2.211,7.953,7.953,0,0,0-.764,3.7V73.581H79.836V42.921H84.96V57.507l-1.074-1.859a7.694,7.694,0,0,1,3.326-3.264,10.841,10.841,0,0,1,5.1-1.158" transform="translate(-22.968 -12.348)" fill="#fff"/><path d="M124.86,77.224a13.443,13.443,0,0,1-6.425-1.467,10.664,10.664,0,0,1-4.257-4.008A11.23,11.23,0,0,1,112.67,65.9a11.482,11.482,0,0,1,1.467-5.847,10.675,10.675,0,0,1,4.049-4.008,11.711,11.711,0,0,1,5.888-1.467,11.457,11.457,0,0,1,5.744,1.426,10.32,10.32,0,0,1,3.967,3.988,12.165,12.165,0,0,1,1.447,6.074c0,.193-.007.434-.021.724s-.035.543-.062.764H116.761V64.126h15.66L130.355,65.2a6.492,6.492,0,0,0-.764-3.326A5.757,5.757,0,0,0,127.38,59.6a6.524,6.524,0,0,0-3.306-.806,6.786,6.786,0,0,0-3.326.806,5.479,5.479,0,0,0-2.252,2.293,7.241,7.241,0,0,0-.785,3.43v.826a6.856,6.856,0,0,0,.888,3.512,6.058,6.058,0,0,0,2.542,2.376,8.31,8.31,0,0,0,3.843.847,8.633,8.633,0,0,0,3.347-.62,7.844,7.844,0,0,0,2.644-1.819l2.81,3.223A9.894,9.894,0,0,1,130,76.315a13.655,13.655,0,0,1-5.144.909" transform="translate(-32.414 -15.702)" fill="#fff"/><path d="M152.1,77.225a10.392,10.392,0,0,1-4.339-.847,6.7,6.7,0,0,1-2.871-2.356,5.971,5.971,0,0,1-1.012-3.408,6.4,6.4,0,0,1,.888-3.347,5.987,5.987,0,0,1,2.913-2.356,13.843,13.843,0,0,1,5.372-.868h6.4v3.43h-6.033q-2.6,0-3.533.847a2.758,2.758,0,0,0-.93,2.128,2.6,2.6,0,0,0,1.115,2.19,5.111,5.111,0,0,0,3.1.826,6.715,6.715,0,0,0,3.409-.868,5.124,5.124,0,0,0,2.21-2.562l.826,3.1a5.755,5.755,0,0,1-2.644,3.016,9.822,9.822,0,0,1-4.876,1.075m6.941-.289v-4.5l-.248-.909v-7.81a4.539,4.539,0,0,0-1.384-3.533,6.063,6.063,0,0,0-4.194-1.26,11.551,11.551,0,0,0-3.6.578,9.515,9.515,0,0,0-3.058,1.611l-2.024-3.76a13.026,13.026,0,0,1,4.256-2.066,18.274,18.274,0,0,1,5.082-.7q4.834,0,7.437,2.314t2.6,7.107V76.935Z" transform="translate(-41.393 -15.702)" fill="#fff"/><rect width="5.124" height="30.66" transform="translate(126.081 30.573)" fill="#fff"/><path d="M186.746,53.183h14.711v4.132H186.746Zm11.24,22.189a7.849,7.849,0,0,1-5.62-1.88,7.244,7.244,0,0,1-1.983-5.516V48.141h5.124V67.81a3.389,3.389,0,0,0,.826,2.438,3.041,3.041,0,0,0,2.314.868,4.3,4.3,0,0,0,2.81-.909l1.487,3.677A6.5,6.5,0,0,1,200.672,75a9.884,9.884,0,0,1-2.686.372" transform="translate(-53.725 -13.85)" fill="#fff"/><path d="M223.647,51.227a10.362,10.362,0,0,1,4.73,1.033,7.726,7.726,0,0,1,3.265,3.182,11.05,11.05,0,0,1,1.219,5.5V73.581H227.7V61.6a6.183,6.183,0,0,0-1.363-4.38,5.081,5.081,0,0,0-3.884-1.447,6.784,6.784,0,0,0-3.223.744,5.1,5.1,0,0,0-2.17,2.211,7.962,7.962,0,0,0-.764,3.7V73.581h-5.124V42.921h5.124V57.507l-1.073-1.859a7.692,7.692,0,0,1,3.326-3.264,10.846,10.846,0,0,1,5.1-1.158" transform="translate(-60.751 -12.348)" fill="#fff"/><path d="M255.942,77.224a12.753,12.753,0,0,1-6.177-1.467,10.88,10.88,0,0,1-4.235-4.008,11.98,11.98,0,0,1,0-11.714,10.939,10.939,0,0,1,4.235-3.988,12.753,12.753,0,0,1,6.177-1.467A11.851,11.851,0,0,1,261.6,55.9a8.508,8.508,0,0,1,3.719,3.843L261.4,62.059a6.619,6.619,0,0,0-2.417-2.293A6.417,6.417,0,0,0,255.9,59a6.951,6.951,0,0,0-3.429.848,6.074,6.074,0,0,0-2.4,2.4,7.367,7.367,0,0,0-.868,3.657,7.482,7.482,0,0,0,.868,3.678,6.037,6.037,0,0,0,2.4,2.418,6.95,6.95,0,0,0,3.429.847,6.416,6.416,0,0,0,3.079-.764,6.512,6.512,0,0,0,2.417-2.335l3.926,2.314a8.663,8.663,0,0,1-3.719,3.822,11.689,11.689,0,0,1-5.661,1.343" transform="translate(-70.197 -15.702)" fill="#fff"/><path d="M281.924,77.225a10.391,10.391,0,0,1-4.339-.847,6.7,6.7,0,0,1-2.871-2.356,5.971,5.971,0,0,1-1.012-3.408,6.4,6.4,0,0,1,.888-3.347,5.987,5.987,0,0,1,2.913-2.356,13.843,13.843,0,0,1,5.372-.868h6.4v3.43h-6.033q-2.6,0-3.533.847a2.758,2.758,0,0,0-.93,2.128,2.6,2.6,0,0,0,1.115,2.19,5.111,5.111,0,0,0,3.1.826,6.715,6.715,0,0,0,3.409-.868,5.123,5.123,0,0,0,2.21-2.562l.826,3.1A5.755,5.755,0,0,1,286.8,76.15a9.822,9.822,0,0,1-4.876,1.075m6.941-.289v-4.5l-.248-.909v-7.81a4.539,4.539,0,0,0-1.384-3.533,6.063,6.063,0,0,0-4.194-1.26,11.551,11.551,0,0,0-3.6.578,9.515,9.515,0,0,0-3.058,1.611l-2.024-3.76a13.026,13.026,0,0,1,4.256-2.066,18.274,18.274,0,0,1,5.082-.7q4.834,0,7.437,2.314t2.6,7.107V76.935Z" transform="translate(-78.741 -15.702)" fill="#fff"/><path d="M306.824,76.935V54.87h4.917v6.074l-.578-1.776a6.843,6.843,0,0,1,3.1-3.409,10.787,10.787,0,0,1,5.248-1.177V59.5c-.194-.027-.386-.048-.579-.062s-.371-.021-.537-.021a6.455,6.455,0,0,0-4.711,1.694,6.927,6.927,0,0,0-1.736,5.166v10.66Z" transform="translate(-88.27 -15.702)" fill="#fff"/><path d="M335.839,77.224a13.448,13.448,0,0,1-6.426-1.467,10.667,10.667,0,0,1-4.256-4.008,11.23,11.23,0,0,1-1.508-5.847,11.482,11.482,0,0,1,1.467-5.847,10.675,10.675,0,0,1,4.049-4.008,11.711,11.711,0,0,1,5.888-1.467,11.457,11.457,0,0,1,5.744,1.426,10.32,10.32,0,0,1,3.967,3.988,12.165,12.165,0,0,1,1.447,6.074c0,.193-.007.434-.021.724s-.035.543-.062.764H327.74V64.126H343.4L341.334,65.2a6.492,6.492,0,0,0-.764-3.326,5.757,5.757,0,0,0-2.211-2.272,6.524,6.524,0,0,0-3.306-.806,6.786,6.786,0,0,0-3.326.806,5.475,5.475,0,0,0-2.252,2.293,7.241,7.241,0,0,0-.785,3.43v.826a6.856,6.856,0,0,0,.888,3.512,6.059,6.059,0,0,0,2.542,2.376,8.311,8.311,0,0,0,3.843.847,8.633,8.633,0,0,0,3.347-.62,7.844,7.844,0,0,0,2.644-1.819l2.81,3.223a9.894,9.894,0,0,1-3.781,2.645,13.655,13.655,0,0,1-5.144.909" transform="translate(-93.111 -15.702)" fill="#fff"/><path d="M358.925,83.6a3.355,3.355,0,0,1-3.429-3.471,3.211,3.211,0,0,1,.992-2.459,3.429,3.429,0,0,1,2.438-.93,3.328,3.328,0,0,1,2.356.93,3.213,3.213,0,0,1,.992,2.459,3.345,3.345,0,0,1-.992,2.5,3.252,3.252,0,0,1-2.356.971" transform="translate(-102.273 -22.077)" fill="#fff"/><path d="M89.333,10.766V25.044H84.839V11.281c0-4.869-2.341-7.256-6.413-7.256-4.495,0-7.444,2.855-7.444,8.239v12.78H66.489V11.281c0-4.869-2.341-7.256-6.414-7.256-4.493,0-7.443,2.855-7.443,8.239v12.78H48.138V.233h4.307v3.7C54.223,1.4,57.266,0,61.012,0c3.792,0,6.975,1.5,8.613,4.588C71.5,1.778,74.962,0,79.175,0c6.038,0,10.158,3.465,10.158,10.767" transform="translate(-13.849 0)" fill="#fff"/><path d="M131.554,10.064V25.045h-4.26V21.767c-1.5,2.247-4.26,3.558-8.145,3.558-5.618,0-9.175-3-9.175-7.3,0-3.979,2.574-7.256,9.97-7.256h7.116v-.89c0-3.792-2.2-5.992-6.648-5.992a12.542,12.542,0,0,0-7.864,2.669l-1.873-3.371A16.521,16.521,0,0,1,120.928,0c6.788,0,10.626,3.277,10.626,10.064m-4.494,7.4V14h-6.929c-4.447,0-5.711,1.732-5.711,3.839,0,2.481,2.06,4.026,5.477,4.026,3.371,0,6.039-1.545,7.163-4.4" transform="translate(-31.639 0)" fill="#fff"/><path d="M166.576.329l-10.861,24.81h-4.587L140.268.329h4.681l8.52,19.9,8.707-19.9Z" transform="translate(-40.354 -0.094)" fill="#fff"/></g></g></svg>